Coordinates
version=1
nRows=7
nColumns=40
inDegrees=yes
endheader
time	pelvis_tilt	pelvis_list	pelvis_rotation	pelvis_tx	pelvis_ty	pelvis_tz	hip_flexion_r	hip_adduction_r	hip_rotation_r	knee_angle_r	knee_angle_r_beta	ankle_angle_r	subtalar_angle_r	mtp_angle_r	hip_flexion_l	hip_adduction_l	hip_rotation_l	knee_angle_l	knee_angle_l_beta	ankle_angle_l	subtalar_angle_l	mtp_angle_l	lumbar_extension	lumbar_bending	lumbar_rotation	arm_flex_r	arm_add_r	arm_rot_r	elbow_flex_r	pro_sup_r	wrist_flex_r	wrist_dev_r	arm_flex_l	arm_add_l	arm_rot_l	elbow_flex_l	pro_sup_l	wrist_flex_l	wrist_dev_l
1760624808.61659408	      9.17269184	     -0.97834011	      0.11661421	      0.16672155	      0.88349072	      0.00230191	     80.00000000	     -7.00000000	      0.00000000	     80.00000000	      1.39626340	      0.00000000	      0.00000000	      0.00000000	     80.00000000	     -7.00000000	      0.00000000	     80.00000000	      1.39626340	      0.00000000	      0.00000000	      0.00000000	    -16.81924708	     -0.51890968	      3.91031649	      6.99306157	     -7.98004351	     21.41127428	      0.00000000	      0.00000000	      3.16544739	    -17.71648497	      8.78207078	     -5.31327130	     10.14613416	      0.00000000	     14.63966959	      9.32235777	    -11.67186632
1760624808.62659407	      9.14222337	     -0.97572859	      0.14733366	      0.16642605	      0.88352241	      0.00221915	     80.00000000	     -7.00000000	      0.00000000	     80.00000000	      1.39626340	      0.00000000	      0.00000000	      0.00000000	     80.00000000	     -7.00000000	      0.00000000	     80.00000000	      1.39626340	      0.00000000	      0.00000000	      0.00000000	    -16.84820924	     -0.51641337	      3.93849829	      6.99419239	     -7.98901534	     21.40967078	      0.00000000	      0.00000000	      3.16473282	    -17.71720055	      8.72263748	     -5.33494334	     10.14405920	      0.00000000	     14.63770535	      9.32089437	    -11.67091718
1760624808.63659406	      9.15797110	     -1.01824292	      0.15947056	      0.16673725	      0.88350757	      0.00235887	     80.00000000	     -7.00000000	      0.00000000	     80.00000000	      1.39626340	      0.00000000	      0.00000000	      0.00000000	     80.00000000	     -7.00000000	      0.00000000	     80.00000000	      1.39626340	      0.00000000	      0.00000000	      0.00000000	    -16.82244902	     -0.49384521	      3.92836010	      6.93663035	     -7.96961182	     21.38655494	      0.00000000	      0.00000000	      3.15790792	    -17.72089043	      8.57864132	     -5.41949559	     10.14123009	      0.00000000	     14.62539941	      9.31564264	    -11.66294277
1760624808.64659405	      9.13112891	     -1.01545638	      0.18444749	      0.16645727	      0.88357650	      0.00228571	     80.00000000	     -7.00000000	      0.00000000	     80.00000000	      1.39626340	      0.00000000	      0.00000000	      0.00000000	     80.00000000	     -7.00000000	      0.00000000	     80.00000000	      1.39626340	      0.00000000	      0.00000000	      0.00000000	    -16.84702982	     -0.49228604	      3.95287086	      6.93822287	     -7.98572318	     21.38492445	      0.00000000	      0.00000000	      3.15689913	    -17.72156791	      8.53341577	     -5.44965759	     10.13922078	      0.00000000	     14.62309489	      9.31357424	    -11.66214711
1760624808.65659404	      9.13730141	     -1.04243695	      0.19400939	      0.16662201	      0.88346036	      0.00240113	     80.00000000	     -7.00000000	      0.00000000	     80.00000000	      1.39626340	      0.00000000	      0.00000000	      0.00000000	     80.00000000	     -7.00000000	      0.00000000	     80.00000000	      1.39626340	      0.00000000	      0.00000000	      0.00000000	    -16.83223546	     -0.48212357	      3.95864267	      6.89948109	     -7.97588580	     21.36576972	      0.00000000	      0.00000000	      3.14935227	    -17.72239236	      8.42504496	     -5.54045810	     10.13498999	      0.00000000	     14.61121391	      9.30570271	    -11.65431883
1760624808.66659403	      9.11760052	     -1.04234316	      0.21062931	      0.16646917	      0.88343240	      0.00230716	     80.00000000	     -7.00000000	      0.00000000	     80.00000000	      1.39626340	      0.00000000	      0.00000000	      0.00000000	     80.00000000	     -7.00000000	      0.00000000	     80.00000000	      1.39626340	      0.00000000	      0.00000000	      0.00000000	    -16.85020584	     -0.48019925	      3.97672631	      6.89437634	     -7.99302787	     21.36278051	      0.00000000	      0.00000000	      3.14761022	    -17.72266777	      8.38681561	     -5.57931623	     10.13320596	      0.00000000	     14.60836751	      9.30326223	    -11.65326293
1760624808.67659402	      9.12822370	     -1.06483751	      0.21761925	      0.16664165	      0.88344694	      0.00243870	     80.00000000	     -7.00000000	      0.00000000	     80.00000000	      1.39626340	      0.00000000	      0.00000000	      0.00000000	     80.00000000	     -7.00000000	      0.00000000	     80.00000000	      1.39626340	      0.00000000	      0.00000000	      0.00000000	    -16.83123285	     -0.47254087	      3.99222374	      6.85176780	     -7.97405072	     21.34227308	      0.00000000	      0.00000000	      3.13847934	    -17.72042915	      8.29852788	     -5.67602881	     10.12908700	      0.00000000	     14.59758068	      9.29608888	    -11.64364271
